<svg width="221" height="46" viewBox="0 0 221 46" fill="none" xmlns="http://www.w3.org/2000/svg">
<rect width="221" height="46" rx="23" fill="url(#paint0_radial_124_52)"/>
<rect x="1" y="2" width="218" height="42" rx="21" fill="#192F45"/>
<circle cx="22.5747" cy="22.9916" r="18.0761" fill="white"/>
<path d="M32.9411 23.292C32.9411 22.5394 32.8736 21.8158 32.7481 21.1211H22.7525V25.2313H28.4643C28.2134 26.5531 27.4609 27.6723 26.332 28.4249V31.0974H29.7765C31.7833 29.245 32.9411 26.5241 32.9411 23.292Z" fill="#4285F4"/>
<path d="M22.7525 33.6639C25.6181 33.6639 28.0205 32.7184 29.7765 31.0974L26.332 28.4249C25.3865 29.0617 24.1805 29.4476 22.7525 29.4476C19.9931 29.4476 17.6486 27.5855 16.8092 25.0769H13.2779V27.817C15.0242 31.2808 18.6038 33.6639 22.7525 33.6639Z" fill="#34A853"/>
<path d="M16.8092 25.0673C16.5969 24.4305 16.4715 23.7551 16.4715 23.0508C16.4715 22.3465 16.5969 21.6711 16.8092 21.0343V18.2942H13.2779C12.5543 19.7221 12.1394 21.3334 12.1394 23.0508C12.1394 24.7682 12.5543 26.3795 13.2779 27.8074L16.0277 25.6655L16.8092 25.0673Z" fill="#FBBC05"/>
<path d="M22.7525 16.6637C24.3156 16.6637 25.7049 17.204 26.8145 18.246L29.8537 15.2068C28.0109 13.4894 25.6181 12.4377 22.7525 12.4377C18.6038 12.4377 15.0242 14.8209 13.2779 18.2943L16.8092 21.0344C17.6486 18.5258 19.9931 16.6637 22.7525 16.6637Z" fill="#EA4335"/>
<path d="M55.3244 28.4342C54.5198 28.4342 53.7504 28.3135 53.0162 28.0721C52.282 27.8207 51.7037 27.4988 51.2812 27.1066L51.8394 25.9298C52.2418 26.2819 52.7547 26.5735 53.3783 26.8049C54.0018 27.0362 54.6506 27.1518 55.3244 27.1518C55.9379 27.1518 56.4358 27.0814 56.818 26.9406C57.2002 26.7998 57.4818 26.6087 57.6628 26.3674C57.8439 26.1159 57.9344 25.8343 57.9344 25.5225C57.9344 25.1604 57.8137 24.8688 57.5723 24.6475C57.341 24.4262 57.0342 24.2502 56.652 24.1195C56.2799 23.9787 55.8675 23.858 55.4149 23.7574C54.9623 23.6568 54.5047 23.5412 54.0421 23.4104C53.5895 23.2696 53.1721 23.0936 52.7899 22.8824C52.4178 22.6712 52.116 22.3896 51.8847 22.0375C51.6534 21.6755 51.5377 21.2128 51.5377 20.6496C51.5377 20.1065 51.6785 19.6086 51.9601 19.156C52.2518 18.6934 52.6943 18.3263 53.2877 18.0547C53.8912 17.7731 54.6556 17.6323 55.5809 17.6323C56.1944 17.6323 56.8029 17.7128 57.4063 17.8737C58.0098 18.0346 58.5328 18.2659 58.9753 18.5677L58.4775 19.7746C58.0249 19.4728 57.5472 19.2566 57.0443 19.1259C56.5414 18.9851 56.0536 18.9146 55.5809 18.9146C54.9875 18.9146 54.4997 18.9901 54.1175 19.1409C53.7353 19.2918 53.4537 19.493 53.2727 19.7444C53.1017 19.9958 53.0162 20.2775 53.0162 20.5892C53.0162 20.9614 53.1319 21.2581 53.3632 21.4793C53.6046 21.7006 53.9113 21.8766 54.2835 22.0074C54.6656 22.1381 55.083 22.2588 55.5356 22.3694C55.9882 22.47 56.4408 22.5857 56.8934 22.7164C57.3561 22.8472 57.7734 23.0182 58.1456 23.2294C58.5278 23.4406 58.8345 23.7222 59.0659 24.0742C59.2972 24.4262 59.4128 24.8788 59.4128 25.432C59.4128 25.965 59.267 26.4629 58.9753 26.9255C58.6837 27.3781 58.2311 27.7452 57.6176 28.0269C57.0141 28.2984 56.2497 28.4342 55.3244 28.4342Z" fill="#C0C3DB"/>
<path d="M61.4057 28.3135V20.3177H62.854V28.3135H61.4057ZM62.1298 18.7789C61.8482 18.7789 61.6118 18.6884 61.4208 18.5073C61.2397 18.3263 61.1492 18.105 61.1492 17.8435C61.1492 17.572 61.2397 17.3457 61.4208 17.1646C61.6118 16.9836 61.8482 16.8931 62.1298 16.8931C62.4114 16.8931 62.6428 16.9836 62.8238 17.1646C63.0149 17.3356 63.1104 17.5518 63.1104 17.8133C63.1104 18.0849 63.0199 18.3162 62.8389 18.5073C62.6578 18.6884 62.4215 18.7789 62.1298 18.7789Z" fill="#C0C3DB"/>
<path d="M69.1193 31.3308C68.3851 31.3308 67.671 31.2252 66.977 31.014C66.2931 30.8128 65.7349 30.5212 65.3024 30.139L65.9964 29.0226C66.3686 29.3444 66.8262 29.5958 67.3693 29.7769C67.9124 29.968 68.4807 30.0635 69.0741 30.0635C70.0195 30.0635 70.7134 29.8423 71.156 29.3997C71.5985 28.9572 71.8198 28.2833 71.8198 27.3781V25.6885L71.9707 24.1044L71.8952 22.5052V20.3177H73.2681V27.2273C73.2681 28.6353 72.9161 29.6713 72.212 30.3351C71.508 30.9989 70.4771 31.3308 69.1193 31.3308ZM68.9383 27.9816C68.1638 27.9816 67.4699 27.8207 66.8563 27.4988C66.2529 27.1669 65.7701 26.7093 65.4081 26.126C65.056 25.5426 64.88 24.8688 64.88 24.1044C64.88 23.3299 65.056 22.6561 65.4081 22.0828C65.7701 21.4995 66.2529 21.0469 66.8563 20.725C67.4699 20.4032 68.1638 20.2423 68.9383 20.2423C69.6222 20.2423 70.2458 20.3831 70.809 20.6647C71.3722 20.9362 71.8198 21.3587 72.1517 21.9319C72.4936 22.5052 72.6646 23.2294 72.6646 24.1044C72.6646 24.9693 72.4936 25.6885 72.1517 26.2617C71.8198 26.835 71.3722 27.2675 70.809 27.5592C70.2458 27.8408 69.6222 27.9816 68.9383 27.9816ZM69.1042 26.7143C69.6373 26.7143 70.11 26.6037 70.5224 26.3824C70.9347 26.1612 71.2566 25.8544 71.4879 25.4622C71.7293 25.0699 71.85 24.6173 71.85 24.1044C71.85 23.5914 71.7293 23.1389 71.4879 22.7466C71.2566 22.3544 70.9347 22.0526 70.5224 21.8414C70.11 21.6202 69.6373 21.5095 69.1042 21.5095C68.5712 21.5095 68.0934 21.6202 67.671 21.8414C67.2587 22.0526 66.9318 22.3544 66.6904 22.7466C66.4591 23.1389 66.3434 23.5914 66.3434 24.1044C66.3434 24.6173 66.4591 25.0699 66.6904 25.4622C66.9318 25.8544 67.2587 26.1612 67.671 26.3824C68.0934 26.6037 68.5712 26.7143 69.1042 26.7143Z" fill="#C0C3DB"/>
<path d="M80.3048 20.2423C80.9586 20.2423 81.5319 20.368 82.0247 20.6194C82.5276 20.8709 82.9198 21.253 83.2014 21.766C83.4831 22.2789 83.6239 22.9276 83.6239 23.7121V28.3135H82.1756V23.8781C82.1756 23.1037 81.9845 22.5203 81.6023 22.1281C81.2301 21.7358 80.7021 21.5397 80.0182 21.5397C79.5053 21.5397 79.0577 21.6403 78.6755 21.8414C78.2933 22.0426 77.9966 22.3393 77.7854 22.7315C77.5843 23.1238 77.4837 23.6116 77.4837 24.1949V28.3135H76.0354V20.3177H77.4233V22.475L77.197 21.9018C77.4585 21.3788 77.8608 20.9714 78.404 20.6798C78.9471 20.3881 79.5807 20.2423 80.3048 20.2423Z" fill="#C0C3DB"/>
<path d="M90.3557 28.3135V20.3177H91.804V28.3135H90.3557ZM91.0799 18.7789C90.7983 18.7789 90.5619 18.6884 90.3708 18.5073C90.1898 18.3263 90.0992 18.105 90.0992 17.8435C90.0992 17.572 90.1898 17.3457 90.3708 17.1646C90.5619 16.9836 90.7983 16.8931 91.0799 16.8931C91.3615 16.8931 91.5928 16.9836 91.7738 17.1646C91.9649 17.3356 92.0605 17.5518 92.0605 17.8133C92.0605 18.0849 91.97 18.3162 91.7889 18.5073C91.6079 18.6884 91.3715 18.7789 91.0799 18.7789Z" fill="#C0C3DB"/>
<path d="M98.8388 20.2423C99.4925 20.2423 100.066 20.368 100.559 20.6194C101.062 20.8709 101.454 21.253 101.735 21.766C102.017 22.2789 102.158 22.9276 102.158 23.7121V28.3135H100.709V23.8781C100.709 23.1037 100.518 22.5203 100.136 22.1281C99.7641 21.7358 99.2361 21.5397 98.5521 21.5397C98.0392 21.5397 97.5916 21.6403 97.2094 21.8414C96.8273 22.0426 96.5305 22.3393 96.3193 22.7315C96.1182 23.1238 96.0176 23.6116 96.0176 24.1949V28.3135H94.5693V20.3177H95.9573V22.475L95.731 21.9018C95.9925 21.3788 96.3948 20.9714 96.9379 20.6798C97.481 20.3881 98.1146 20.2423 98.8388 20.2423Z" fill="#C0C3DB"/>
<path d="M110.579 28.3135L107.607 20.3177H108.98L111.62 27.5592H110.972L113.717 20.3177H114.939L117.625 27.5592H116.991L119.692 20.3177H120.989L118.002 28.3135H116.614L114.094 21.7056H114.517L111.967 28.3135H110.579Z" fill="#C0C3DB"/>
<path d="M122.459 28.3135V20.3177H123.907V28.3135H122.459ZM123.183 18.7789C122.901 18.7789 122.665 18.6884 122.474 18.5073C122.293 18.3263 122.202 18.105 122.202 17.8435C122.202 17.572 122.293 17.3457 122.474 17.1646C122.665 16.9836 122.901 16.8931 123.183 16.8931C123.464 16.8931 123.696 16.9836 123.877 17.1646C124.068 17.3356 124.163 17.5518 124.163 17.8133C124.163 18.0849 124.073 18.3162 123.892 18.5073C123.711 18.6884 123.474 18.7789 123.183 18.7789Z" fill="#C0C3DB"/>
<path d="M129.418 28.404C128.613 28.404 127.99 28.1878 127.547 27.7553C127.105 27.3228 126.883 26.7043 126.883 25.8997V18.5677H128.332V25.8393C128.332 26.2718 128.437 26.6037 128.649 26.835C128.87 27.0664 129.182 27.182 129.584 27.182C130.036 27.182 130.414 27.0563 130.715 26.8049L131.168 27.8458C130.947 28.0369 130.68 28.1777 130.368 28.2682C130.067 28.3588 129.75 28.404 129.418 28.404ZM125.526 21.5095V20.3177H130.625V21.5095H125.526Z" fill="#C0C3DB"/>
<path d="M137.188 20.2423C137.842 20.2423 138.415 20.368 138.908 20.6194C139.411 20.8709 139.803 21.253 140.085 21.766C140.367 22.2789 140.507 22.9276 140.507 23.7121V28.3135H139.059V23.8781C139.059 23.1037 138.868 22.5203 138.486 22.1281C138.114 21.7358 137.586 21.5397 136.902 21.5397C136.389 21.5397 135.941 21.6403 135.559 21.8414C135.177 22.0426 134.88 22.3393 134.669 22.7315C134.468 23.1238 134.367 23.6116 134.367 24.1949V28.3135H132.919V17.1194H134.367V22.475L134.081 21.9018C134.342 21.3788 134.744 20.9714 135.287 20.6798C135.831 20.3881 136.464 20.2423 137.188 20.2423Z" fill="#C0C3DB"/>
<path d="M152.218 28.4342C151.403 28.4342 150.654 28.3034 149.97 28.0419C149.286 27.7704 148.693 27.3932 148.19 26.9105C147.687 26.4176 147.295 25.8444 147.013 25.1906C146.731 24.5369 146.591 23.8177 146.591 23.0332C146.591 22.2488 146.731 21.5296 147.013 20.8759C147.295 20.2221 147.687 19.6539 148.19 19.1711C148.703 18.6783 149.301 18.3011 149.985 18.0396C150.669 17.7681 151.423 17.6323 152.248 17.6323C153.083 17.6323 153.847 17.7681 154.541 18.0396C155.235 18.3112 155.823 18.7185 156.306 19.2616L155.371 20.197C154.938 19.7746 154.466 19.4678 153.953 19.2767C153.45 19.0756 152.902 18.975 152.308 18.975C151.705 18.975 151.142 19.0756 150.619 19.2767C150.106 19.4779 149.658 19.7595 149.276 20.1216C148.904 20.4836 148.612 20.9161 148.401 21.419C148.2 21.9118 148.099 22.4499 148.099 23.0332C148.099 23.6065 148.2 24.1446 148.401 24.6475C148.612 25.1403 148.904 25.5728 149.276 25.9449C149.658 26.307 150.106 26.5886 150.619 26.7898C151.132 26.9909 151.69 27.0915 152.293 27.0915C152.856 27.0915 153.395 27.006 153.907 26.835C154.43 26.654 154.913 26.3573 155.356 25.9449L156.216 27.0915C155.693 27.534 155.079 27.871 154.375 28.1023C153.681 28.3236 152.962 28.4342 152.218 28.4342ZM154.767 26.8954V22.9729H156.216V27.0915L154.767 26.8954Z" fill="#C0C3DB"/>
<path d="M162.318 28.404C161.513 28.404 160.799 28.228 160.175 27.876C159.552 27.524 159.059 27.0412 158.697 26.4277C158.335 25.8041 158.154 25.1001 158.154 24.3156C158.154 23.521 158.335 22.817 158.697 22.2035C159.059 21.59 159.552 21.1122 160.175 20.7703C160.799 20.4183 161.513 20.2423 162.318 20.2423C163.112 20.2423 163.821 20.4183 164.445 20.7703C165.078 21.1122 165.571 21.59 165.923 22.2035C166.285 22.807 166.466 23.511 166.466 24.3156C166.466 25.1101 166.285 25.8142 165.923 26.4277C165.571 27.0412 165.078 27.524 164.445 27.876C163.821 28.228 163.112 28.404 162.318 28.404ZM162.318 27.1368C162.831 27.1368 163.288 27.0211 163.69 26.7898C164.103 26.5584 164.425 26.2316 164.656 25.8092C164.887 25.3767 165.003 24.8788 165.003 24.3156C165.003 23.7423 164.887 23.2495 164.656 22.8371C164.425 22.4147 164.103 22.0878 163.69 21.8565C163.288 21.6252 162.831 21.5095 162.318 21.5095C161.805 21.5095 161.347 21.6252 160.945 21.8565C160.542 22.0878 160.221 22.4147 159.979 22.8371C159.738 23.2495 159.617 23.7423 159.617 24.3156C159.617 24.8788 159.738 25.3767 159.979 25.8092C160.221 26.2316 160.542 26.5584 160.945 26.7898C161.347 27.0211 161.805 27.1368 162.318 27.1368Z" fill="#C0C3DB"/>
<path d="M171.894 28.404C171.089 28.404 170.375 28.228 169.752 27.876C169.128 27.524 168.635 27.0412 168.273 26.4277C167.911 25.8041 167.73 25.1001 167.73 24.3156C167.73 23.521 167.911 22.817 168.273 22.2035C168.635 21.59 169.128 21.1122 169.752 20.7703C170.375 20.4183 171.089 20.2423 171.894 20.2423C172.688 20.2423 173.398 20.4183 174.021 20.7703C174.655 21.1122 175.148 21.59 175.5 22.2035C175.862 22.807 176.043 23.511 176.043 24.3156C176.043 25.1101 175.862 25.8142 175.5 26.4277C175.148 27.0412 174.655 27.524 174.021 27.876C173.398 28.228 172.688 28.404 171.894 28.404ZM171.894 27.1368C172.407 27.1368 172.864 27.0211 173.267 26.7898C173.679 26.5584 174.001 26.2316 174.232 25.8092C174.464 25.3767 174.579 24.8788 174.579 24.3156C174.579 23.7423 174.464 23.2495 174.232 22.8371C174.001 22.4147 173.679 22.0878 173.267 21.8565C172.864 21.6252 172.407 21.5095 171.894 21.5095C171.381 21.5095 170.923 21.6252 170.521 21.8565C170.119 22.0878 169.797 22.4147 169.556 22.8371C169.314 23.2495 169.193 23.7423 169.193 24.3156C169.193 24.8788 169.314 25.3767 169.556 25.8092C169.797 26.2316 170.119 26.5584 170.521 26.7898C170.923 27.0211 171.381 27.1368 171.894 27.1368Z" fill="#C0C3DB"/>
<path d="M181.546 31.3308C180.811 31.3308 180.097 31.2252 179.403 31.014C178.72 30.8128 178.161 30.5212 177.729 30.139L178.423 29.0226C178.795 29.3444 179.253 29.5958 179.796 29.7769C180.339 29.968 180.907 30.0635 181.5 30.0635C182.446 30.0635 183.14 29.8423 183.582 29.3997C184.025 28.9572 184.246 28.2833 184.246 27.3781V25.6885L184.397 24.1044L184.322 22.5052V20.3177H185.694V27.2273C185.694 28.6353 185.342 29.6713 184.638 30.3351C183.934 30.9989 182.903 31.3308 181.546 31.3308ZM181.365 27.9816C180.59 27.9816 179.896 27.8207 179.283 27.4988C178.679 27.1669 178.197 26.7093 177.834 26.126C177.482 25.5426 177.306 24.8688 177.306 24.1044C177.306 23.3299 177.482 22.6561 177.834 22.0828C178.197 21.4995 178.679 21.0469 179.283 20.725C179.896 20.4032 180.59 20.2423 181.365 20.2423C182.049 20.2423 182.672 20.3831 183.235 20.6647C183.799 20.9362 184.246 21.3587 184.578 21.9319C184.92 22.5052 185.091 23.2294 185.091 24.1044C185.091 24.9693 184.92 25.6885 184.578 26.2617C184.246 26.835 183.799 27.2675 183.235 27.5592C182.672 27.8408 182.049 27.9816 181.365 27.9816ZM181.531 26.7143C182.064 26.7143 182.536 26.6037 182.949 26.3824C183.361 26.1612 183.683 25.8544 183.914 25.4622C184.156 25.0699 184.276 24.6173 184.276 24.1044C184.276 23.5914 184.156 23.1389 183.914 22.7466C183.683 22.3544 183.361 22.0526 182.949 21.8414C182.536 21.6202 182.064 21.5095 181.531 21.5095C180.998 21.5095 180.52 21.6202 180.097 21.8414C179.685 22.0526 179.358 22.3544 179.117 22.7466C178.885 23.1389 178.77 23.5914 178.77 24.1044C178.77 24.6173 178.885 25.0699 179.117 25.4622C179.358 25.8544 179.685 26.1612 180.097 26.3824C180.52 26.6037 180.998 26.7143 181.531 26.7143Z" fill="#C0C3DB"/>
<path d="M188.462 28.3135V17.1194H189.91V28.3135H188.462Z" fill="#C0C3DB"/>
<path d="M196.236 28.404C195.381 28.404 194.627 28.228 193.973 27.876C193.329 27.524 192.826 27.0412 192.464 26.4277C192.112 25.8142 191.936 25.1101 191.936 24.3156C191.936 23.521 192.107 22.817 192.449 22.2035C192.801 21.59 193.279 21.1122 193.882 20.7703C194.496 20.4183 195.185 20.2423 195.949 20.2423C196.724 20.2423 197.407 20.4132 198.001 20.7552C198.594 21.0972 199.057 21.5799 199.389 22.2035C199.731 22.817 199.902 23.5361 199.902 24.3609C199.902 24.4212 199.897 24.4916 199.887 24.5721C199.887 24.6525 199.882 24.728 199.872 24.7984H193.068V23.7574H199.117L198.529 24.1195C198.539 23.6065 198.433 23.1489 198.212 22.7466C197.991 22.3443 197.684 22.0325 197.292 21.8112C196.91 21.5799 196.462 21.4643 195.949 21.4643C195.446 21.4643 194.999 21.5799 194.606 21.8112C194.214 22.0325 193.907 22.3493 193.686 22.7617C193.465 23.164 193.354 23.6266 193.354 24.1496V24.391C193.354 24.9241 193.475 25.4018 193.716 25.8242C193.968 26.2366 194.315 26.5584 194.757 26.7898C195.2 27.0211 195.708 27.1368 196.281 27.1368C196.754 27.1368 197.181 27.0563 197.563 26.8954C197.956 26.7345 198.298 26.4931 198.589 26.1712L199.389 27.1066C199.027 27.529 198.574 27.8509 198.031 28.0721C197.498 28.2934 196.9 28.404 196.236 28.404Z" fill="#C0C3DB"/>
<defs>
<radialGradient id="paint0_radial_124_52" cx="0" cy="0" r="1" gradientUnits="userSpaceOnUse" gradientTransform="translate(154.902 19.5) rotate(-12.0229) scale(290.442 60.4992)">
<stop stop-color="#4D6782"/>
<stop offset="1" stop-color="#192E44"/>
</radialGradient>
</defs>
</svg>
