<svg width="708" height="693" viewBox="0 0 708 693" fill="none" xmlns="http://www.w3.org/2000/svg">
<path d="M144.322 250.62C144.322 250.62 103.369 176.501 101.495 155.88C99.6201 135.26 135.093 62.0059 201.858 84.5011C268.623 106.996 276.554 184.864 276.554 184.864L259.105 191.065C259.105 191.065 245.695 126.031 202.435 101.805C159.175 77.5795 112.31 122.57 116.924 146.219C120.673 165.542 149.658 235.911 149.658 235.911L144.322 250.62Z" fill="#5FABDB"/>
<path d="M291.262 175.78C291.262 175.78 338.559 271.673 346.49 324.162C354.421 376.65 275.111 389.052 237.043 394.531C198.974 400.011 135.959 281.623 135.238 273.259C134.517 264.895 139.419 238.507 146.053 231.585C152.686 224.664 291.262 175.78 291.262 175.78Z" fill="#F2EBEB"/>
<path d="M145.908 231.585C148.792 243.121 152.253 254.513 156.147 265.905C160.04 277.152 164.222 288.4 169.125 299.215C174.027 310.03 179.651 320.557 185.996 330.651C192.197 340.745 199.839 349.829 208.635 357.76C210.798 359.635 213.106 361.509 215.557 363.096C218.008 364.826 220.46 366.268 223.055 367.566C228.247 370.161 233.87 371.892 239.783 372.613C251.607 374.055 263.431 374.055 275.256 372.613C287.08 371.171 298.616 367.998 309.431 363.384C320.535 358.77 330.773 352.569 339.713 344.638C335.531 348.82 330.773 352.713 325.726 355.886C324.428 356.751 323.13 357.472 321.977 358.337C320.823 359.202 319.381 359.923 318.083 360.644L314.19 362.807C312.892 363.528 311.45 364.105 310.152 364.826C299.193 369.873 287.657 373.334 275.688 375.064C272.66 375.497 269.776 375.929 266.748 376.074L262.278 376.362C260.836 376.362 259.25 376.362 257.808 376.362H250.886C250.165 376.362 249.444 376.218 248.579 376.218L239.638 375.497C233.582 374.776 227.526 373.045 222.046 370.45C219.306 369.152 216.711 367.566 214.115 365.835C211.664 364.105 209.212 362.23 206.905 360.356C197.965 352.281 190.178 342.908 183.977 332.525C177.632 322.287 172.009 311.616 167.394 300.513C157.877 278.018 150.811 255.09 145.908 231.585Z" fill="#171E28"/>
<path d="M277.419 314.212C277.419 314.212 262.133 283.209 261.989 278.738C261.845 274.268 265.594 255.666 250.742 250.475C235.889 245.284 221.469 252.494 226.949 267.779C232.428 283.064 246.56 279.748 252.76 286.093C258.961 292.437 264.008 316.375 268.19 319.403C272.372 322.431 279.726 318.826 277.419 314.212Z" fill="#171E28"/>
<path d="M138.843 209.09C135.526 202.889 132.498 196.545 129.758 190.2C127.018 183.711 124.423 177.222 122.115 170.589C119.808 163.955 117.934 157.178 116.492 150.256C115.771 146.796 115.194 143.335 114.905 139.73C114.473 136.269 114.761 132.664 115.771 129.203C115.482 132.664 115.626 136.125 116.347 139.586C116.924 143.046 117.789 146.363 118.655 149.68C120.529 156.313 122.692 162.946 124.855 169.579C127.018 176.212 129.47 182.701 131.777 189.335C134.084 195.824 136.535 202.457 138.843 209.09Z" fill="#171E28"/>
<path d="M480.741 273.259C479.731 275.566 423.061 347.955 433.155 378.092C439.644 397.415 480.741 345.792 480.741 345.792V273.259Z" fill="#171E28"/>
<path d="M549.524 592.229C549.524 592.229 552.697 617.609 554.139 619.339C555.581 621.069 579.374 640.825 584.709 640.825C590.044 640.825 595.236 635.634 592.64 631.163C590.044 626.693 569.135 616.022 569.135 611.696V592.374H549.524V592.229Z" fill="#171E28"/>
<path d="M518.233 592.229C518.233 592.229 518.81 623.088 518.233 624.53C517.656 625.972 478.001 625.684 478.001 624.53C478.001 623.377 478.001 619.772 487.662 620.204C497.324 620.637 502.082 616.743 502.948 613.283C503.813 609.822 506.264 592.229 506.264 592.229H518.233Z" fill="#171E28"/>
<path d="M484.49 332.093C484.49 332.093 477.136 377.227 477.857 411.835C479.01 462.738 484.634 464.612 478.722 478.888C472.81 493.164 471.8 495.039 475.694 505.133C479.587 515.227 468.484 526.763 475.261 533.396C482.039 540.029 481.894 548.248 478.866 562.668C475.838 577.088 501.65 585.164 501.65 585.164V597.132H520.828V332.093H484.49Z" fill="#F2EBEB"/>
<path d="M576.778 566.129C577.643 553.584 571.01 522.148 567.261 514.505C563.512 506.863 574.182 490.568 567.261 482.926C560.339 475.283 562.935 459.133 558.465 423.948C552.697 379.246 549.524 390.349 549.524 390.349L490.691 331.948L512.321 384.581L545.487 604.198L573.894 602.467L569.568 583.866C573.75 578.963 576.201 572.618 576.778 566.129Z" fill="#F2EBEB"/>
<path d="M516.647 265.76C516.647 265.76 612.107 320.989 590.189 342.907C572.74 360.211 536.69 327.911 536.69 327.911L516.647 265.76Z" fill="#171E28"/>
<path d="M488.383 265.761C485.355 267.635 482.615 270.231 480.597 273.259C477.424 278.018 462.572 374.487 468.484 382.418C474.396 390.349 556.013 400.299 559.041 391.936C562.07 383.572 527.317 272.105 516.502 265.761C505.687 259.416 488.383 265.761 488.383 265.761Z" fill="#171E28"/>
<path d="M538.132 313.491C513.763 313.491 488.528 342.187 488.528 342.187C485.211 340.312 481.894 338.726 478.289 337.284C472.954 335.265 468.628 340.745 468.628 340.745C468.628 340.745 303.663 222.068 294.002 220.626C284.34 219.184 278.428 231.297 279.438 234.758C280.447 238.218 302.365 249.322 302.365 249.322C302.365 249.322 288.234 266.77 288.234 269.221C288.234 271.673 292.127 277.008 297.03 277.441C301.933 277.873 317.506 261.867 317.506 261.867L330.196 272.105C330.196 272.105 322.409 285.228 321.977 290.13C321.544 295.033 324.861 296.475 327.745 297.485C330.629 298.494 343.751 282.488 343.751 282.488L460.409 358.337C460.409 358.337 455.073 362.23 456.948 367.133C458.822 372.036 473.098 373.911 473.098 373.911C461.851 395.252 461.418 445.866 503.236 462.882C545.054 479.898 588.891 431.735 593.217 385.014C597.543 338.293 562.502 313.491 538.132 313.491ZM572.596 406.932C551.687 459.998 498.333 460.719 483.625 416.161C468.916 371.603 517.223 338.293 517.223 338.293C548.371 315.51 593.505 353.867 572.596 406.932Z" fill="#5FABDB"/>
<path d="M308.566 253.792C311.45 255.378 314.19 257.109 316.93 258.983C319.669 260.858 322.121 262.732 324.716 264.751C327.312 266.77 329.763 268.789 332.071 271.096C334.522 273.259 336.829 275.566 338.992 278.018C336.108 276.431 333.368 274.701 330.629 272.826C327.889 270.952 325.437 269.077 322.842 267.058C320.246 265.04 317.795 263.021 315.488 260.714C313.036 258.551 310.729 256.243 308.566 253.792Z" fill="#171E28"/>
<path d="M500.064 320.989C500.064 320.989 504.534 312.914 503.957 311.472C503.38 310.03 492.854 318.105 492.854 318.105L500.064 320.989Z" fill="#A04040"/>
<path d="M475.982 333.246C475.982 333.246 490.835 318.826 493.575 318.105C496.314 317.384 517.079 322.864 517.512 324.162C517.944 325.459 503.524 326.469 503.524 326.469C503.524 326.469 518.089 333.535 518.377 334.832C518.665 336.13 514.916 337.14 514.916 337.14C514.916 337.14 515.926 338.293 512.176 339.591C512.176 339.591 512.321 340.889 508.427 340.312C504.534 339.735 494.584 336.274 494.584 336.274L484.778 352.713C484.634 352.713 476.992 344.061 475.982 333.246Z" fill="#D89491"/>
<path d="M498.477 331.372C499.919 331.66 501.217 331.948 502.515 332.381C503.813 332.814 505.111 333.39 506.408 333.967C507.706 334.544 508.86 335.409 510.013 336.274C510.59 336.707 511.023 337.284 511.455 337.861C511.744 338.149 511.888 338.582 511.888 338.87C512.032 339.303 511.888 339.591 511.744 339.879C511.888 339.158 511.455 338.726 510.879 338.293C510.302 337.861 509.869 337.428 509.292 337.14C508.139 336.419 506.985 335.842 505.687 335.265C503.38 334.111 500.929 332.958 498.477 331.372Z" fill="#171E28"/>
<path d="M498.189 327.19C501.361 327.911 504.534 329.064 507.418 330.651C508.86 331.372 510.302 332.381 511.6 333.246C513.042 334.256 514.195 335.553 514.916 336.995C513.763 335.842 512.465 334.832 511.023 334.111C509.581 333.246 508.139 332.525 506.697 331.804C503.813 330.362 500.929 328.92 498.189 327.19Z" fill="#171E28"/>
<path d="M497.468 323.152C500.496 324.161 503.524 325.603 506.408 327.045C509.292 328.487 512.032 330.218 514.628 332.237C511.6 331.227 508.571 329.929 505.687 328.343C502.948 326.757 500.208 325.027 497.468 323.152Z" fill="#171E28"/>
<path d="M566.684 346.657C566.684 346.657 561.204 339.014 559.474 333.102C557.744 327.19 553.562 329.497 555.581 338.005C557.599 346.513 565.819 354.876 566.684 346.657Z" fill="#D89491"/>
<path d="M560.339 343.484C560.339 343.484 556.734 348.675 552.841 343.484C548.947 338.293 551.543 330.218 552.408 329.497C553.85 328.199 556.446 335.409 556.446 335.409L560.339 343.484Z" fill="#D89491"/>
<path d="M552.697 341.465C552.697 341.465 549.957 344.926 547.505 339.302C545.054 333.679 546.929 328.343 548.803 329.497C550.678 330.65 550.966 338.005 552.697 341.465Z" fill="#D89491"/>
<path d="M556.157 330.218C555.725 331.227 555.581 332.381 555.725 333.535C555.869 334.688 556.013 335.842 556.302 336.851C556.59 338.005 556.878 339.158 557.167 340.168C557.455 341.177 557.888 342.475 558.176 343.629C557.455 342.763 556.734 341.61 556.157 340.6C555.581 339.447 555.148 338.293 554.86 337.14C554.571 335.986 554.427 334.688 554.571 333.39C554.571 332.237 555.148 331.083 556.157 330.218Z" fill="#171E28"/>
<path d="M552.408 342.619C551.687 341.898 551.11 341.033 550.822 340.168C550.389 339.303 550.245 338.293 550.101 337.284C549.957 335.265 550.389 333.246 551.543 331.66C551.543 332.669 551.543 333.535 551.543 334.544C551.543 335.553 551.543 336.419 551.687 337.284C551.831 339.014 551.976 340.889 552.408 342.619Z" fill="#171E28"/>
<path d="M497.18 229.566L487.374 245.428L487.518 239.084L497.18 229.566Z" fill="#171E28"/>
<path d="M502.515 235.046C502.515 235.046 505.832 263.886 505.832 264.463C505.832 265.04 486.797 271.529 486.797 271.529L487.662 245.717C487.662 245.717 471.079 250.331 475.694 231.874C475.694 231.874 467.042 230.864 467.763 230.143C468.484 229.422 479.01 218.751 484.778 214.425C490.546 210.099 513.042 220.914 512.753 224.231C512.465 227.548 509.437 236.632 502.515 235.046Z" fill="#D89491"/>
<path d="M500.064 232.45C500.064 232.45 505.111 222.212 507.418 223.222C509.725 224.231 510.446 231.729 502.371 235.046L503.092 241.247C509.869 238.939 515.06 233.604 516.935 226.682C520.396 215.002 512.753 206.927 492.133 204.476C492.133 204.476 505.832 195.968 496.314 189.479C486.797 182.846 472.521 201.159 473.963 206.35C475.405 211.541 480.164 215.291 485.932 217.165C491.7 219.04 494.584 219.328 494.44 220.914C494.296 222.501 491.123 229.711 487.951 231.008C484.778 232.306 475.405 231.729 475.405 231.729C475.405 231.729 465.023 240.237 461.851 246.726C458.678 253.215 463.581 251.196 463.581 251.196C463.581 251.196 460.985 253.359 466.609 254.801C472.233 256.243 493.575 247.736 500.064 232.45Z" fill="#A04040"/>
<path d="M492.277 222.501C492.277 222.501 484.202 218.319 480.741 225.385C480.741 225.385 489.104 229.422 492.277 222.501Z" fill="#F2EBEB"/>
<path d="M492.709 222.5C491.556 222.356 490.402 222.068 489.249 222.068C488.239 221.924 487.086 221.924 486.076 222.212C483.913 222.5 482.039 223.798 480.741 225.529C480.885 224.375 481.606 223.221 482.471 222.356C483.481 221.491 484.634 220.914 485.932 220.77C487.086 220.626 488.383 220.626 489.537 221.058C490.691 221.203 491.7 221.635 492.709 222.5Z" fill="#171E28"/>
<path d="M484.778 221.635C484.778 221.635 486.941 222.501 485.499 226.538C485.499 226.538 481.606 226.682 480.741 225.24C480.741 225.24 482.904 221.347 484.778 221.635Z" fill="#171E28"/>
<path d="M487.518 234.758C487.807 235.334 487.662 236.055 487.374 236.632C487.086 237.209 486.509 237.786 485.932 237.93C484.778 238.363 483.336 238.218 482.327 237.497C482.904 237.353 483.481 237.209 484.057 237.065C484.49 236.921 485.067 236.776 485.499 236.632C486.365 236.344 487.086 235.623 487.518 234.758Z" fill="#171E28"/>
<path d="M480.741 187.893C479.731 190.2 478.578 192.363 477.713 194.526C476.703 196.689 475.982 198.852 475.405 201.015C474.829 203.034 474.973 205.197 475.838 207.215C476.992 209.234 478.722 210.82 480.741 211.83C478.001 211.686 475.55 210.532 473.819 208.369C472.954 207.215 472.521 205.918 472.377 204.476C472.233 203.178 472.377 201.736 472.666 200.438C473.242 197.987 474.252 195.535 475.694 193.372C476.992 191.353 478.722 189.479 480.741 187.893Z" fill="#A04040"/>
<path d="M485.067 215.579C485.211 214.858 485.644 214.425 486.22 213.993C486.797 213.56 487.518 213.56 488.239 213.56C488.816 213.704 489.537 213.993 489.97 214.281C490.402 214.714 490.835 215.146 491.123 215.723C490.546 215.579 489.97 215.435 489.537 215.29C489.104 215.146 488.528 215.002 488.095 215.002C486.941 214.858 485.932 215.002 485.067 215.579Z" fill="#171E28"/>
<path d="M475.982 333.246L436.471 352.713C436.471 352.713 423.205 380.976 442.528 386.744C461.851 392.512 484.634 352.713 484.634 352.713L475.982 333.246Z" fill="#171E28"/>
<path d="M442.96 349.396C445.412 347.522 448.007 345.791 450.747 344.349C453.343 342.763 456.083 341.321 458.822 340.023C461.562 338.726 464.302 337.428 467.186 336.274C470.07 335.121 472.954 334.111 475.838 333.246C473.387 335.121 470.791 336.851 468.051 338.293C465.456 339.879 462.716 341.321 459.976 342.619C457.236 343.917 454.496 345.215 451.612 346.368C448.873 347.522 445.989 348.531 442.96 349.396Z" fill="#171E28"/>
<path d="M333.513 209.09C334.234 210.82 334.666 212.695 334.666 214.57C334.666 216.444 334.666 218.175 334.378 220.049C334.089 221.78 333.801 223.654 333.224 225.385C332.792 227.115 332.071 228.845 331.205 230.432C330.917 228.557 330.917 226.827 331.061 224.952C331.205 223.222 331.35 221.347 331.638 219.617C331.926 217.886 332.215 216.156 332.503 214.425C332.792 212.695 333.224 210.965 333.513 209.09Z" fill="#5FABDB"/>
<path d="M354.71 216.156C354.566 217.309 354.133 218.319 353.556 219.328C352.98 220.338 352.547 221.203 351.97 222.212C350.817 224.087 349.519 225.817 348.221 227.548C346.923 229.278 345.481 230.864 343.895 232.306C342.309 233.892 340.723 235.334 338.848 236.488C339.713 234.469 340.867 232.595 342.02 230.864C343.174 229.134 344.472 227.403 345.77 225.673C347.067 223.943 348.509 222.356 349.951 220.77C350.672 220.049 351.393 219.184 352.259 218.463C353.268 217.742 353.989 217.021 354.71 216.156Z" fill="#5FABDB"/>
<path d="M346.923 242.688C347.356 241.679 348.077 240.67 348.798 239.804C349.519 238.939 350.384 238.218 351.249 237.497C352.114 236.776 353.124 236.199 353.989 235.767C354.998 235.19 356.152 234.757 357.306 234.613C356.873 235.623 356.152 236.632 355.431 237.497C353.989 239.228 352.259 240.525 350.24 241.535C349.086 242.112 348.077 242.4 346.923 242.688Z" fill="#5FABDB"/>
</svg>
